<?xml version="1.0" encoding="UTF-8" standalone="no"?>
<svg width="37px" height="40px" viewBox="0 0 37 40" version="1.1" xmlns="http://www.w3.org/2000/svg" xmlns:xlink="http://www.w3.org/1999/xlink" xmlns:sketch="http://www.bohemiancoding.com/sketch/ns">
    <!-- Generator: sketchtool 3.4 (356) - http://www.bohemiancoding.com/sketch -->
    <title>Group Copy</title>
    <desc>Created with sketchtool.</desc>
    <defs></defs>
    <g id="Screens" stroke="none" stroke-width="1" fill="none" fill-rule="evenodd" sketch:type="MSPage">
        <g id="Homepage" sketch:type="MSArtboardGroup" transform="translate(-205.000000, -10.000000)">
            <g id="Group-Copy" sketch:type="MSLayerGroup" transform="translate(205.000000, 10.000000)">
                <path d="M0.0438215027,15.4214998 C0.0438215027,23.9283663 8.39335605,30.8247298 18.6929792,30.8247298 L18.6929792,30.8247298 C19.4585477,30.8247298 20.2128831,30.7854192 20.954381,30.711604 L20.954381,30.711604 L24.8999838,28.2011468 C14.8642731,27.9926403 10.9138561,23.6338448 10.9138561,18.4767603 L10.9138561,18.4767603 C10.9138561,12.3979097 16.9332335,7.47015769 24.3585805,7.47015769 L24.3585805,7.47015769 C28.878298,7.47015769 32.8750045,9.29717708 35.3121833,12.0973498 L35.3121833,12.0973498 L36.6266848,11.26813 C36.6235988,11.2595038 36.6229816,11.2498918 36.6181675,11.2420051 L36.6181675,11.2420051 C32.7023134,4.76967862 27.2284129,0.0185163077 18.6929792,0.0185163077 L18.6929792,0.0185163077 C8.39335605,0.0185163077 0.0438215027,6.91463338 0.0438215027,15.4214998" id="Fill-1" fill="#2196F3" sketch:type="MSShapeGroup"></path>
                <path d="M15.7977185,9.28312877 L11.8522391,11.793586 C21.8878264,12.0020925 25.8383668,16.3610112 25.8383668,21.5179725 L25.8383668,21.5179725 C25.8383668,27.5968231 19.8189894,32.5246983 12.3936424,32.5246983 L12.3936424,32.5246983 C7.87392491,32.5246983 3.87721834,30.6974325 1.44003955,27.8975062 L1.44003955,27.8975062 L0.155410321,28.7224129 C0.158496294,28.7310391 0.159236928,28.7406511 0.163680731,28.7484146 L0.163680731,28.7484146 C3.41592695,34.4409368 9.52381002,39.9762165 18.0592436,39.9762165 L18.0592436,39.9762165 C28.3588668,39.9762165 36.7082779,33.0800994 36.7082779,24.5733562 L36.7082779,24.5733562 C36.7082779,16.0662432 28.3588668,9.17000292 18.0592436,9.17000292 L18.0592436,9.17000292 C17.2936752,9.17000292 16.5392163,9.20919031 15.7977185,9.28312877" id="Fill-4" fill="#2196F3" sketch:type="MSShapeGroup"></path>
                <path d="M0.528813168,27.6971329 C0.176394943,27.8527734 -0.00950412706,28.2276414 0.0587576166,28.5900631 L0.0587576166,28.5900631 C2.30448258,33.3526858 6.35784763,37.0972992 11.3368814,38.9419406 L11.3368814,38.9419406 C13.4226295,39.6094817 15.6893391,39.9762165 18.0592436,39.9762165 L18.0592436,39.9762165 C22.811767,39.9762165 27.1480541,38.5070592 30.4411586,36.0893948 L30.4411586,36.0893948 L30.4416524,36.0898877 C30.4779434,36.0631466 30.5131235,36.0356662 30.5492911,36.0085554 L30.5492911,36.0085554 C30.6277983,35.950144 30.7061821,35.8914862 30.7835783,35.8317192 L30.7835783,35.8317192 C30.8340648,35.7929015 30.8834404,35.7533445 30.9334332,35.7140338 L30.9334332,35.7140338 C31.0020652,35.6598123 31.0706973,35.605714 31.1382184,35.5507531 L31.1382184,35.5507531 C31.1917909,35.5072526 31.2442525,35.4633825 31.2972078,35.4192658 L31.2972078,35.4192658 C31.3595445,35.3672625 31.4217577,35.3152591 31.4832303,35.2626395 L31.4832303,35.2626395 C31.5384075,35.2155654 31.5927207,35.1679983 31.6470338,35.1204312 L31.6470338,35.1204312 C31.6765357,35.0943063 31.7070251,35.0689208 31.7364036,35.0427958 L31.7364036,35.0427958 C31.7351692,35.0431655 31.7339348,35.0436585 31.732577,35.0442746 L31.732577,35.0442746 C32.2596613,34.5750118 32.7530469,34.0796242 33.2068085,33.5589742 L33.2068085,33.5589742 C32.4274149,34.4532598 31.3759618,35.1484046 30.2030449,35.5999222 L30.2030449,35.5999222 C27.4491217,36.5034502 24.3698135,37.0094357 21.1197892,37.0094357 L21.1197892,37.0094357 C12.3683374,37.0094357 4.854608,33.3443062 1.60322586,28.1108186 L1.60322586,28.1108186 L1.60297898,28.1109418 C1.46818364,27.8074245 1.17044887,27.6272611 0.858271746,27.6272611 L0.858271746,27.6272611 C0.748040757,27.6272611 0.636081622,27.6496891 0.528813168,27.6971329" id="Fill-7" fill="#147CCC" sketch:type="MSShapeGroup"></path>
                <path d="M10.5063841,10.4869702 L10.5071248,10.4893115 C10.1592738,10.5922092 9.92165378,10.9289989 9.95732764,11.3031275 L9.95732764,11.3031275 C9.99756874,11.7276575 10.375292,12.0388152 10.8006626,11.9985188 L10.8006626,11.9985188 C10.8251035,11.9960542 10.8492976,11.992234 10.8729978,11.9877977 L10.8729978,11.9877977 L10.8738619,11.9917411 C11.5658607,11.9328368 12.2667471,11.9019058 12.975657,11.9019058 L12.975657,11.9019058 C13.1527919,11.9019058 13.3290628,11.9040008 13.5053336,11.9076977 L13.5053336,11.9076977 C13.5633499,11.9088068 13.6211193,11.9111482 13.6791357,11.9128734 L13.6791357,11.9128734 C13.7968964,11.9162006 13.9149041,11.9196511 14.0322945,11.9245803 L14.0322945,11.9245803 C14.10105,11.9276611 14.1695586,11.931358 14.2381907,11.9349317 L14.2381907,11.9349317 C14.3444716,11.9403538 14.4507526,11.9458992 14.5565398,11.9525537 L14.5565398,11.9525537 C14.6291219,11.9572365 14.7013337,11.9625354 14.7737923,11.9677111 L14.7737923,11.9677111 C14.8752592,11.9752282 14.976726,11.9829917 15.0780694,11.9914946 L15.0780694,11.9914946 C15.1520093,11.9976562 15.2257024,12.0045571 15.2995189,12.011458 L15.2995189,12.011458 C15.3988872,12.0208235 15.4981321,12.0308052 15.5972536,12.0412798 L15.5972536,12.0412798 C15.6709467,12.0491666 15.7447632,12.0571766 15.8184562,12.0656795 L15.8184562,12.0656795 C15.9175777,12.07714 16.0164523,12.0894631 16.1152035,12.1020326 L16.1152035,12.1020326 C16.1874153,12.1113982 16.2596271,12.1205172 16.3318389,12.1304989 L16.3318389,12.1304989 C16.4329354,12.1441775 16.5334147,12.1590885 16.6340174,12.1742458 L16.6340174,12.1742458 C16.7028964,12.1845972 16.7718987,12.1944557 16.8406542,12.2053 L16.8406542,12.2053 C16.9477993,12.2224291 17.0544505,12.2407905 17.1612252,12.2592751 L17.1612252,12.2592751 C17.2224509,12.2698729 17.2839235,12.2797314 17.3450258,12.2906989 L17.3450258,12.2906989 C17.4820431,12.3154683 17.6183197,12.3418397 17.7544728,12.3688272 L17.7544728,12.3688272 C17.7843451,12.3747423 17.8148345,12.3801645 17.8448302,12.3860795 L17.8448302,12.3860795 C18.0088805,12.4193518 18.1721903,12.4544726 18.3348828,12.4908257 L18.3348828,12.4908257 C18.3938867,12.5040114 18.4525202,12.5184294 18.5114005,12.5322312 L18.5114005,12.5322312 C18.6159533,12.5565077 18.7208765,12.5806609 18.8249355,12.6064162 L18.8249355,12.6064162 C18.8938144,12.623422 18.9625699,12.6412905 19.0313254,12.6589125 L19.0313254,12.6589125 C19.1245218,12.6829425 19.2179651,12.7068492 19.3105444,12.7316186 L19.3105444,12.7316186 C19.3832499,12.7512123 19.4553382,12.7714222 19.5276735,12.791632 L19.5276735,12.791632 C19.6158089,12.8161549 19.7038209,12.8409243 19.791586,12.8666795 L19.791586,12.8666795 C19.8655259,12.8882449 19.9393424,12.9103032 20.0130355,12.932608 L20.0130355,12.932608 C20.0980849,12.95824 20.1832578,12.9844882 20.2680603,13.0112292 L20.2680603,13.0112292 C20.3426175,13.0345198 20.4168043,13.0581802 20.4908677,13.0823334 L20.4908677,13.0823334 C20.574189,13.1094442 20.6572634,13.1371711 20.7399675,13.1650212 L20.7399675,13.1650212 C20.8142777,13.1901603 20.8884645,13.2152994 20.962281,13.2410546 L20.962281,13.2410546 C21.0444914,13.2697674 21.126208,13.2992195 21.2078011,13.3286717 L21.2078011,13.3286717 C21.2812473,13.3552895 21.3548169,13.3816609 21.4277694,13.4088949 L21.4277694,13.4088949 C21.5097328,13.4394562 21.5910791,13.4710032 21.6724254,13.5024271 L21.6724254,13.5024271 C21.7443903,13.5300308 21.8163552,13.5572648 21.8877029,13.5857311 L21.8877029,13.5857311 C21.9725055,13.6193731 22.0565674,13.6542474 22.1409997,13.6889985 L22.1409997,13.6889985 C22.2459228,13.7321292 22.3507224,13.7756297 22.4549049,13.8203625 L22.4549049,13.8203625 C22.5599515,13.8653417 22.6652449,13.9103209 22.7691805,13.9567789 L22.7691805,13.9567789 C22.8453423,13.9906674 22.9205167,14.0259114 22.9960613,14.0605392 L22.9960613,14.0605392 C23.067409,14.0931954 23.1387567,14.1253586 23.2096107,14.1587542 L23.2096107,14.1587542 C23.2875007,14.1954769 23.3644032,14.2333088 23.4417994,14.2706477 L23.4417994,14.2706477 C23.5090736,14.3034271 23.5765947,14.3358368 23.6436221,14.3692323 L23.6436221,14.3692323 C23.7220058,14.40805 23.7996489,14.4477303 23.8774155,14.4875338 L23.8774155,14.4875338 C23.9420975,14.5206829 24.0067795,14.553832 24.0710912,14.5873508 L24.0710912,14.5873508 C24.1495984,14.6285098 24.2276118,14.6704083 24.3056252,14.7121835 L24.3056252,14.7121835 C24.3678385,14.7458255 24.4299282,14.7794675 24.4917712,14.8134792 L24.4917712,14.8134792 C24.5705252,14.8567332 24.6490324,14.9006034 24.7271693,14.9448432 L24.7271693,14.9448432 C24.7865434,14.978362 24.8456707,15.0123737 24.904551,15.0463854 L24.904551,15.0463854 C24.9840457,15.0925969 25.063417,15.1388085 25.1422945,15.1856362 L25.1422945,15.1856362 C25.1977186,15.2184155 25.2526489,15.2519343 25.3077027,15.2853298 L25.3077027,15.2853298 C25.3889255,15.3346222 25.4702718,15.3839145 25.5508774,15.4343158 L25.5508774,15.4343158 C25.5996358,15.4646306 25.647777,15.4956848 25.6961651,15.5264925 L25.6961651,15.5264925 C25.7819552,15.5809605 25.8678687,15.6353052 25.9527947,15.6907591 L25.9527947,15.6907591 C25.9840247,15.7112154 26.0150079,15.7322878 26.0461145,15.7529906 L26.0461145,15.7529906 C26.3752028,15.9706162 26.6973785,16.1960052 27.0121478,16.4294043 L27.0121478,16.4294043 C27.0325152,16.4444385 27.0531295,16.4591029 27.073497,16.4741371 L27.073497,16.4741371 C27.1637308,16.5416675 27.2532241,16.6103071 27.3425939,16.6791931 L27.3425939,16.6791931 C27.3761693,16.705318 27.4104853,16.7310732 27.4440607,16.7573214 L27.4440607,16.7573214 C27.5291102,16.8237428 27.6132955,16.8909035 27.6971106,16.9585572 L27.6971106,16.9585572 C27.7336485,16.9878862 27.7701864,17.0169686 27.8063541,17.0464208 L27.8063541,17.0464208 C27.8890582,17.113828 27.9707748,17.1819746 28.0522445,17.2503677 L28.0522445,17.2503677 C28.0881652,17.2805592 28.1242094,17.310874 28.1597598,17.3411888 L28.1597598,17.3411888 C28.2414764,17.4109374 28.3225758,17.4808092 28.4031814,17.5515437 L28.4031814,17.5515437 C28.4366334,17.5808726 28.4698385,17.6103248 28.503167,17.6399002 L28.503167,17.6399002 C28.5852539,17.7128528 28.666847,17.7862983 28.7476996,17.8604832 L28.7476996,17.8604832 C28.7765843,17.8868546 28.8049752,17.9134725 28.8336131,17.9400903 L28.8336131,17.9400903 C28.9182922,18.0185883 29.0024776,18.0973328 29.0857989,18.1773095 L29.0857989,18.1773095 C29.1049319,18.1954245 29.1238181,18.2141555 29.1428277,18.2325169 L29.1428277,18.2325169 C29.6532477,18.7251935 30.1363878,19.2410375 30.5895322,19.7786934 L30.5895322,19.7786934 C30.593976,19.7837458 30.5982964,19.7889215 30.6027402,19.793974 L30.6027402,19.793974 C30.6865553,19.8936677 30.7690125,19.9941008 30.8508525,20.09515 L30.8508525,20.09515 C30.8638136,20.11117 30.8767747,20.1270668 30.8898592,20.1430868 L30.8898592,20.1430868 C30.9677492,20.2401926 31.0447751,20.3381611 31.1210604,20.4367457 L31.1210604,20.4367457 C31.1362434,20.4563394 31.1514264,20.4756866 31.1664859,20.4954035 L31.1664859,20.4954035 C31.2417837,20.5934952 31.3160939,20.6920798 31.3895401,20.7914038 L31.3895401,20.7914038 C31.4037356,20.8106278 31.4178076,20.8299751 31.4318797,20.8490758 L31.4318797,20.8490758 C31.5064368,20.950618 31.579883,21.0527763 31.6523417,21.1555508 L31.6523417,21.1555508 C31.6627105,21.1702152 31.6730794,21.1850029 31.6832014,21.1996674 L31.6832014,21.1996674 C31.7593632,21.3083569 31.8345376,21.4175394 31.9083541,21.5274612 L31.9083541,21.5274612 C31.9100822,21.5301723 31.9118104,21.5327602 31.9134151,21.5352248 L31.9134151,21.5352248 C32.3944567,22.2532905 32.8266165,23.0006851 33.2054506,23.7740814 L33.2054506,23.7740814 C33.2065616,23.7761763 33.207796,23.7785177 33.2087835,23.7808591 L33.2087835,23.7808591 C33.2690217,23.9037202 33.3275318,24.0273206 33.3850543,24.1515372 L33.3850543,24.1515372 C33.389745,24.1617654 33.3946826,24.1718703 33.3993732,24.1819752 L33.3993732,24.1819752 C33.4550442,24.3032343 33.5097277,24.4251095 33.5628064,24.5477242 L33.5628064,24.5477242 C33.5679909,24.5593078 33.572805,24.5710148 33.5779894,24.5824752 L33.5779894,24.5824752 C33.6314385,24.7060757 33.6835297,24.8302923 33.7342631,24.9548786 L33.7342631,24.9548786 C33.7374725,24.9626422 33.7404351,24.9705289 33.7437679,24.9781692 L33.7437679,24.9781692 C34.1209974,25.9097938 34.4236697,26.8735817 34.6440082,27.8641106 L34.6440082,27.8641106 L34.6282081,27.8689166 C34.7381922,28.3331269 34.7964554,28.8144663 34.7964554,29.308252 L34.7964554,29.308252 C34.7964554,30.8329863 34.2777649,32.2586431 33.3470351,33.3954469 L33.3470351,33.3954469 C34.0048413,32.6193395 34.577845,31.7903662 35.0556772,30.9183852 L35.0556772,30.9183852 C35.0558006,30.9193711 35.0558006,30.9203569 35.0558006,30.9212195 L35.0558006,30.9212195 C35.1118419,30.818938 35.1662785,30.7159171 35.2193572,30.61228 L35.2193572,30.61228 C35.270461,30.5133257 35.31996,30.4133855 35.3687184,30.3130757 L35.3687184,30.3130757 C35.3688418,30.3129525 35.3690887,30.312706 35.3692121,30.3123363 L35.3692121,30.3123363 C35.372545,30.3053122 35.3761247,30.2984112 35.3794576,30.2913871 L35.3794576,30.2913871 C35.3794576,30.2912638 35.379581,30.2911406 35.379581,30.2911406 L35.379581,30.2911406 C35.4278456,30.1915702 35.4745056,30.09163 35.520178,29.9913202 L35.520178,29.9913202 C35.5203014,29.990704 35.5205483,29.9903343 35.5206717,29.9900878 L35.5206717,29.9900878 C35.5268437,29.9760395 35.5335094,29.9622377 35.5398048,29.9480662 L35.5398048,29.9480662 C35.5843662,29.8492351 35.6276933,29.7499111 35.669786,29.6502174 L35.669786,29.6502174 C35.6699094,29.6500942 35.6699094,29.6499709 35.6699094,29.6497245 L35.6699094,29.6497245 C35.6739829,29.6403589 35.677933,29.6307469 35.6821299,29.6210117 L35.6821299,29.6210117 C35.7266913,29.5146635 35.7701419,29.4076992 35.8121111,29.300242 L35.8121111,29.300242 C35.8122345,29.300242 35.8122345,29.2999955 35.8122345,29.2999955 L35.8122345,29.2999955 C35.8135924,29.2964218 35.8149502,29.2928482 35.816308,29.2893977 L35.816308,29.2893977 C35.924564,29.0111426 36.0233152,28.7295603 36.1125615,28.444774 L36.1125615,28.444774 C36.1156475,28.4352852 36.11861,28.4257965 36.1215726,28.4164309 L36.1215726,28.4164309 C36.1493463,28.3270886 36.176256,28.2376231 36.2021782,28.1479111 L36.2021782,28.1479111 C36.204647,28.1394082 36.2068689,28.1310285 36.2090908,28.1226488 L36.2090908,28.1226488 C36.2580961,27.9511115 36.3035216,27.7784652 36.3457377,27.6045866 L36.3457377,27.6045866 C36.3494409,27.5890595 36.3535144,27.5735325 36.357341,27.5580054 L36.357341,27.5580054 C36.3751162,27.4829578 36.3920273,27.4077871 36.4084447,27.3323698 L36.4084447,27.3323698 C36.4178261,27.2899785 36.4267137,27.2475871 36.4356013,27.2051957 L36.4356013,27.2051957 C36.4501671,27.1356935 36.464486,27.0663146 36.4778174,26.9964428 L36.4778174,26.9964428 C36.4909019,26.9290355 36.5026286,26.8612586 36.5144788,26.7934817 L36.5144788,26.7934817 C36.5295383,26.7072202 36.5439807,26.6205889 36.5570652,26.5338345 L36.5570652,26.5338345 C36.5678044,26.4645788 36.5782967,26.3954463 36.5878015,26.3259442 L36.5878015,26.3259442 C36.5950844,26.2733246 36.601997,26.2204586 36.6086627,26.1675926 L36.6086627,26.1675926 C36.6187847,26.0868765 36.6277957,26.0056674 36.636313,25.9245815 L36.636313,25.9245815 C36.64051,25.8851477 36.6453241,25.8457138 36.6489038,25.8061568 L36.6489038,25.8061568 C36.6603836,25.6881017 36.6700119,25.5695537 36.6780354,25.4507592 L36.6780354,25.4507592 C36.6805042,25.4146526 36.6823558,25.3784228 36.6845777,25.3420697 L36.6845777,25.3420697 C36.690009,25.2491537 36.6945762,25.1559912 36.6981559,25.0625823 L36.6981559,25.0625823 C36.6996372,25.0251202 36.7011185,24.9877812 36.7022294,24.9503191 L36.7022294,24.9503191 C36.7058092,24.8249934 36.7082779,24.699298 36.7082779,24.5733562 L36.7082779,24.5733562 C36.7082779,16.0662432 28.3588668,9.17000292 18.0592436,9.17000292 L18.0592436,9.17000292 C15.3706197,9.17000292 12.8154333,9.64086769 10.5063841,10.4869702" id="Fill-10" fill="#147CCC" sketch:type="MSShapeGroup"></path>
                <path d="M1.69654571,9.07634754 C1.69642227,9.07523846 1.69629883,9.07449908 1.69629883,9.07339 L1.69629883,9.07339 C1.64025754,9.17567154 1.5859444,9.27869246 1.53286565,9.38232954 L1.53286565,9.38232954 C1.48176192,9.48153031 1.4322629,9.58134723 1.38338107,9.68153385 L1.38338107,9.68153385 C1.38325763,9.68190354 1.38313419,9.68202677 1.38288732,9.68251969 L1.38288732,9.68251969 C1.37955446,9.68954385 1.37609817,9.69632154 1.37276532,9.70322246 L1.37276532,9.70322246 C1.37264188,9.70359215 1.37264188,9.70371538 1.37264188,9.70383862 L1.37264188,9.70383862 C1.32437725,9.80303938 1.27784076,9.903226 1.23192147,10.0035358 L1.23192147,10.0035358 C1.23179803,10.0039055 1.23167459,10.0042752 1.23142772,10.0046449 L1.23142772,10.0046449 C1.22513233,10.0186932 1.2187135,10.0324951 1.21254156,10.0465434 L1.21254156,10.0465434 C1.16785665,10.1453745 1.12440614,10.2446985 1.08243689,10.3446386 L1.08243689,10.3446386 C1.08231345,10.3447618 1.08231345,10.3447618 1.08219002,10.3448851 L1.08219002,10.3448851 C1.07823997,10.3544971 1.07416648,10.3639858 1.07021644,10.3735978 L1.07021644,10.3735978 C1.02553153,10.4800692 0.981957582,10.5869103 0.940111775,10.6944908 L0.940111775,10.6944908 C0.939988336,10.6944908 0.939864897,10.694614 0.939864897,10.6947372 L0.939864897,10.6947372 C0.938507069,10.6983109 0.937272679,10.7018846 0.935914851,10.7054583 L0.935914851,10.7054583 C0.827658885,10.9835902 0.728784279,11.2651725 0.639661352,11.550082 L0.639661352,11.550082 C0.636575378,11.5594475 0.633612843,11.5689363 0.630650308,11.5783018 L0.630650308,11.5783018 C0.602876543,11.6676442 0.575843411,11.7569865 0.550044669,11.8469449 L0.550044669,11.8469449 C0.547575889,11.8553246 0.545353988,11.8637043 0.543008648,11.872084 L0.543008648,11.872084 C0.494126821,12.0437445 0.448454406,12.2163908 0.406485161,12.3902694 L0.406485161,12.3902694 C0.402658553,12.4057965 0.398585067,12.4213235 0.395005338,12.4367274 L0.395005338,12.4367274 C0.377106689,12.5117749 0.360195552,12.5869457 0.343654731,12.6622397 L0.343654731,12.6622397 C0.334396809,12.7046311 0.325509204,12.7471457 0.31649816,12.7895371 L0.31649816,12.7895371 C0.302055802,12.8590392 0.287613444,12.9284182 0.274282037,12.99829 L0.274282037,12.99829 C0.261320946,13.0656972 0.249594245,13.1333509 0.237744105,13.2012511 L0.237744105,13.2012511 C0.222561114,13.2875126 0.208365633,13.3740206 0.195034226,13.4608983 L0.195034226,13.4608983 C0.184171598,13.5300308 0.173926164,13.5992865 0.164297926,13.6689118 L0.164297926,13.6689118 C0.157138466,13.7215314 0.150225884,13.7742742 0.143560181,13.8272634 L0.143560181,13.8272634 C0.133438186,13.9079795 0.124303703,13.9890654 0.115786415,14.0701512 L0.115786415,14.0701512 C0.111712929,14.1095851 0.10689881,14.1490189 0.103195641,14.1884528 L0.103195641,14.1884528 C0.0918392573,14.3066311 0.0822110186,14.4251791 0.0740640474,14.5439735 L0.0740640474,14.5439735 C0.0715952682,14.5800802 0.0697436838,14.6161868 0.0676452216,14.6525398 L0.0676452216,14.6525398 C0.0620904685,14.7455791 0.057523227,14.8387415 0.0539434972,14.9321505 L0.0539434972,14.9321505 C0.0524622298,14.9694894 0.0509809623,15.0070748 0.0498700116,15.0444137 L0.0498700116,15.0444137 C0.0464137208,15.1697394 0.0438215027,15.2953115 0.0438215027,15.4214998 L0.0438215027,15.4214998 C0.0438215027,23.9283663 8.39335605,30.8247298 18.6929792,30.8247298 L18.6929792,30.8247298 C21.3816032,30.8247298 23.9367896,30.3539883 26.2458388,29.5077626 L26.2458388,29.5077626 L26.2450981,29.505298 C26.5929491,29.4025235 26.8305691,29.0658571 26.7948952,28.691482 L26.7948952,28.691482 C26.7545307,28.2670752 26.3769309,27.9557943 25.9515603,27.9963372 L25.9515603,27.9963372 C25.9271194,27.9985554 25.9029253,28.0023755 25.8792251,28.0068118 L25.8792251,28.0068118 L25.8782375,28.0028685 C25.1862387,28.0617728 24.4853523,28.0929502 23.7764424,28.0929502 L23.7764424,28.0929502 C23.5995544,28.0929502 23.4230367,28.090732 23.2467658,28.0871583 L23.2467658,28.0871583 C23.1887495,28.085926 23.1308567,28.0834614 23.0732107,28.0818594 L23.0732107,28.0818594 C22.955203,28.0785322 22.8373188,28.0750817 22.7199284,28.0701525 L22.7199284,28.0701525 C22.6510494,28.0671949 22.5826642,28.0633748 22.5140322,28.0599243 L22.5140322,28.0599243 C22.4077512,28.0545022 22.3015937,28.0489568 22.1955597,28.0421791 L22.1955597,28.0421791 C22.123101,28.0374963 22.0507658,28.0321974 21.9784305,28.0270217 L21.9784305,28.0270217 C21.8769637,28.0195046 21.7753735,28.0118643 21.6741535,28.0031149 L21.6741535,28.0031149 C21.6000901,27.9970766 21.5263971,27.9901757 21.452704,27.9831515 L21.452704,27.9831515 C21.3533357,27.9739092 21.2540907,27.9639275 21.1548458,27.9533297 L21.1548458,27.9533297 C21.0811528,27.9455662 21.0073363,27.9374329 20.9337666,27.9290532 L20.9337666,27.9290532 C20.8346452,27.9175928 20.7356471,27.9052697 20.636896,27.8927002 L20.636896,27.8927002 C20.5645607,27.8834578 20.4923489,27.8742155 20.4202606,27.8642338 L20.4202606,27.8642338 C20.3192875,27.8505552 20.2186848,27.8356443 20.118082,27.8204869 L20.118082,27.8204869 C20.0492031,27.8101355 19.9803241,27.8001538 19.9115686,27.7893095 L19.9115686,27.7893095 C19.8043002,27.7723037 19.6977724,27.7539423 19.5908742,27.7354577 L19.5908742,27.7354577 C19.5296485,27.7249831 19.4681759,27.7150014 19.4071971,27.7040338 L19.4071971,27.7040338 C19.2701798,27.6791412 19.1337798,27.6530163 18.99775,27.6260288 L18.99775,27.6260288 C18.9676309,27.6201137 18.9373884,27.6146915 18.9073927,27.6086532 L18.9073927,27.6086532 C18.7433423,27.5753809 18.5800326,27.5402602 18.4173401,27.5040303 L18.4173401,27.5040303 C18.3582128,27.4905982 18.2995793,27.4763034 18.2406989,27.4625015 L18.2406989,27.4625015 C18.1360227,27.4382251 18.0314699,27.4139486 17.927164,27.3883166 L17.927164,27.3883166 C17.858285,27.371434 17.789653,27.3533191 17.7210209,27.3358203 L17.7210209,27.3358203 C17.627701,27.3119135 17.5343812,27.2880068 17.4415551,27.2629909 L17.4415551,27.2629909 C17.368973,27.2435205 17.2968846,27.2233106 17.2246728,27.2031008 L17.2246728,27.2031008 C17.136414,27.1784546 17.048402,27.1536852 16.9606369,27.1281765 L16.9606369,27.1281765 C16.8865735,27.1066111 16.8128805,27.0844295 16.7391874,27.062248 L16.7391874,27.062248 C16.6540145,27.0364928 16.5688417,27.0103678 16.4841625,26.9836268 L16.4841625,26.9836268 C16.4097288,26.9602129 16.3352952,26.9364294 16.2613552,26.9123994 L16.2613552,26.9123994 C16.1780339,26.8852886 16.0950829,26.8576849 16.012132,26.8295883 L16.012132,26.8295883 C15.9378217,26.8045725 15.8637583,26.7793102 15.7898184,26.7536782 L15.7898184,26.7536782 C15.7076081,26.7249654 15.6260149,26.6955132 15.5442983,26.6659378 L15.5442983,26.6659378 C15.4708521,26.6394432 15.397406,26.6130718 15.3243301,26.5858378 L15.3243301,26.5858378 C15.2424901,26.5552766 15.1611438,26.5238528 15.0797975,26.4923057 L15.0797975,26.4923057 C15.007956,26.4645788 14.9358677,26.4375912 14.86452,26.4091249 L14.86452,26.4091249 C14.7797174,26.3754829 14.695532,26.3404854 14.6113467,26.3058575 L14.6113467,26.3058575 C14.5061767,26.2626035 14.401377,26.2189798 14.297318,26.1743703 L14.297318,26.1743703 C14.192148,26.1295143 14.086978,26.0844118 13.9829189,26.0379538 L13.9829189,26.0379538 C13.9067571,26.0040654 13.8317062,25.9688214 13.7561616,25.9341935 L13.7561616,25.9341935 C13.6848139,25.9015374 13.6133427,25.8692509 13.5426122,25.8358554 L13.5426122,25.8358554 C13.4647222,25.7991326 13.3878197,25.7615472 13.3104235,25.7240851 L13.3104235,25.7240851 C13.2430258,25.6914289 13.1755047,25.658896 13.1086008,25.6256237 L13.1086008,25.6256237 C13.0300936,25.5866828 12.9523271,25.5468792 12.8748074,25.5071989 L12.8748074,25.5071989 C12.8101254,25.4740498 12.7453199,25.4409008 12.6811317,25.407382 L12.6811317,25.407382 C12.6025011,25.3662229 12.5243642,25.3243245 12.4463508,25.282426 L12.4463508,25.282426 C12.3843844,25.2490305 12.3222946,25.2153885 12.2603283,25.1812535 L12.2603283,25.1812535 C12.1816977,25.1379995 12.1031905,25.0941294 12.0250536,25.0498895 L12.0250536,25.0498895 C11.9656795,25.0162475 11.9065522,24.9822358 11.8476718,24.9482242 L11.8476718,24.9482242 C11.7681772,24.9021358 11.6886825,24.8560475 11.609805,24.8092198 L11.609805,24.8092198 C11.5545043,24.776194 11.4994505,24.7427985 11.4445202,24.7094029 L11.4445202,24.7094029 C11.3631739,24.6599874 11.2819511,24.6106951 11.2014689,24.5604169 L11.2014689,24.5604169 C11.1525871,24.5301022 11.1044459,24.4989248 11.0560578,24.4682403 L11.0560578,24.4682403 C10.9702677,24.4137723 10.8843542,24.3594275 10.7994282,24.3039737 L10.7994282,24.3039737 C10.7681982,24.2833942 10.737215,24.2623217 10.7059849,24.2418654 L10.7059849,24.2418654 C10.3771435,24.0242398 10.0548444,23.7987275 9.73995164,23.5653285 L9.73995164,23.5653285 C9.71958421,23.5504175 9.69909334,23.5356298 9.67872591,23.5205957 L9.67872591,23.5205957 C9.5883686,23.4530652 9.49899879,23.3843025 9.40962899,23.3156629 L9.40962899,23.3156629 C9.37580671,23.2892915 9.34173756,23.2635363 9.30816216,23.2374114 L9.30816216,23.2374114 C9.22298928,23.1711132 9.13892735,23.103706 9.0551123,23.0361755 L9.0551123,23.0361755 C9.01845093,23.0069698 8.98203644,22.9776409 8.94574538,22.9481888 L8.94574538,22.9481888 C8.86316472,22.8807815 8.78144813,22.8127582 8.69985498,22.7443651 L8.69985498,22.7443651 C8.66393424,22.7141735 8.62801351,22.6838588 8.59233965,22.653544 L8.59233965,22.653544 C8.5107465,22.5839186 8.4296471,22.5139235 8.34904146,22.4430658 L8.34904146,22.4430658 C8.3155895,22.4138602 8.28238442,22.384408 8.24917934,22.3549558 L8.24917934,22.3549558 C8.166969,22.28188 8.08537585,22.2083112 8.00452333,22.1343728 L8.00452333,22.1343728 C7.97563861,22.1078782 7.94724765,22.0812603 7.91873325,22.0546425 L7.91873325,22.0546425 C7.83405413,21.9761445 7.74974532,21.8972768 7.66642402,21.8175465 L7.66642402,21.8175465 C7.64729099,21.7993083 7.62840483,21.7807005 7.60939523,21.7622158 L7.60939523,21.7622158 C7.09897514,21.2695392 6.61583505,20.7536952 6.1625672,20.2161626 L6.1625672,20.2161626 C6.15824684,20.2109869 6.15380304,20.2059345 6.14948267,20.2006355 L6.14948267,20.2006355 C6.06554418,20.1011883 5.98308696,20.000632 5.90137037,19.8995828 L5.90137037,19.8995828 C5.88840928,19.8835628 5.87532475,19.867666 5.86236366,19.851646 L5.86236366,19.851646 C5.78435023,19.7545402 5.70744776,19.6564485 5.63116249,19.5581103 L5.63116249,19.5581103 C5.61585606,19.5383934 5.6007965,19.5189229 5.58573695,19.4993292 L5.58573695,19.4993292 C5.51043919,19.4012375 5.4360055,19.3025297 5.36268275,19.2033289 L5.36268275,19.2033289 C5.34848727,19.1841049 5.33441523,19.1648809 5.32009631,19.1456569 L5.32009631,19.1456569 C5.24578606,19.0441148 5.17233988,18.9420797 5.09988121,18.8390588 L5.09988121,18.8390588 C5.08951234,18.8245175 5.07926691,18.8097298 5.06902147,18.7950654 L5.06902147,18.7950654 C4.99285964,18.6864991 4.91768531,18.5771934 4.84386882,18.4672715 L4.84386882,18.4672715 C4.84214067,18.4646837 4.84041252,18.4620958 4.83880782,18.4593848 L4.83880782,18.4593848 C4.35764276,17.7414423 3.92560641,16.9940477 3.54677225,16.2206514 L3.54677225,16.2206514 C3.54553786,16.2184332 3.54442691,16.2162151 3.54331596,16.2138737 L3.54331596,16.2138737 C3.48320118,16.0911358 3.42456768,15.9672889 3.36716856,15.8433188 L3.36716856,15.8433188 C3.36247788,15.8329674 3.35754032,15.8228625 3.35284964,15.8127575 L3.35284964,15.8127575 C3.29717867,15.6913752 3.24261865,15.5696232 3.18929303,15.4471318 L3.18929303,15.4471318 C3.18423203,15.4354249 3.17917103,15.423718 3.17423347,15.4122575 L3.17423347,15.4122575 C3.1207844,15.2886571 3.06856972,15.1645637 3.01795975,15.0398542 L3.01795975,15.0398542 C3.01475034,15.0319674 3.01154093,15.0243271 3.00845495,15.0165635 L3.00845495,15.0165635 C2.63110206,14.0850622 2.32867661,13.1211511 2.10821463,12.1306222 L2.10821463,12.1306222 L2.12389138,12.1259394 C2.01403071,11.6617291 1.95576752,11.1802665 1.95576752,10.6863575 L1.95576752,10.6863575 C1.95576752,9.16174646 2.47445802,7.73608969 3.40518776,6.59928585 L3.40518776,6.59928585 C2.74738156,7.37551646 2.17437791,8.20448985 1.69654571,9.07634754" id="Fill-13" fill="#147CCC" sketch:type="MSShapeGroup"></path>
                <path d="M6.31106427,3.905338 L6.31057051,3.90484508 C6.2744029,3.93158615 6.23897592,3.95918985 6.20293174,3.98605415 L6.20293174,3.98605415 C6.12442456,4.04458877 6.04604083,4.10324662 5.9686446,4.16289031 L5.9686446,4.16289031 C5.91815807,4.20183123 5.86865904,4.24138831 5.8187897,4.28069892 L5.8187897,4.28069892 C5.75015764,4.33479723 5.68152558,4.389142 5.61400447,4.44397969 L5.61400447,4.44397969 C5.5605554,4.48735692 5.50784697,4.53135031 5.45476822,4.57546692 L5.45476822,4.57546692 C5.39243154,4.62734708 5.33046519,4.67947369 5.26899259,4.73209323 L5.26899259,4.73209323 C5.21381537,4.77916738 5.15950223,4.82673446 5.10518909,4.87430154 L5.10518909,4.87430154 C5.07568718,4.90042646 5.04519776,4.925812 5.01581928,4.95206015 L5.01581928,4.95206015 C5.01693023,4.95156723 5.01828806,4.95107431 5.01952245,4.95045815 L5.01952245,4.95045815 C4.4924381,5.41959769 3.99917603,5.91523185 3.54541442,6.43588185 L3.54541442,6.43588185 C4.32468456,5.54159615 5.37638448,4.84632815 6.54917802,4.39493385 L6.54917802,4.39493385 C9.30310117,3.49115938 12.382286,2.98529708 15.6324337,2.98529708 L15.6324337,2.98529708 C24.3837621,2.98529708 31.8974914,6.65042662 35.1491205,11.8839142 L35.1491205,11.8839142 C35.3316867,12.2943958 35.812358,12.4793652 36.2234097,12.2975998 L36.2234097,12.2975998 C36.5755811,12.1419594 36.806165,11.7561238 36.6934653,11.4050394 L36.6934653,11.4050394 C36.6923543,11.4014657 36.6902559,11.3983849 36.6887746,11.3949345 L36.6887746,11.3949345 C34.4419387,6.63662477 30.3901783,2.89558508 25.4141071,1.05242246 L25.4141071,1.05242246 C23.3287293,0.385127846 21.06239,0.0185163077 18.6929792,0.0185163077 L18.6929792,0.0185163077 C13.9403325,0.0185163077 9.60416878,1.48779677 6.31106427,3.905338" id="Fill-16" fill="#147CCC" sketch:type="MSShapeGroup"></path>
            </g>
        </g>
    </g>
</svg>